<svg width="31" height="30" viewBox="0 0 31 30" fill="none" xmlns="http://www.w3.org/2000/svg">
<g id="mage:book">
<path id="Vector" d="M15.5 24.5562C13.8113 23.3675 11.8563 22.61 9.80625 22.355C8.35231 22.0596 6.87102 21.92 5.3875 21.9387C5.19768 21.9404 5.0094 21.9044 4.83355 21.8329C4.6577 21.7614 4.49775 21.6558 4.36294 21.5221C4.22813 21.3885 4.12113 21.2294 4.04811 21.0542C3.97509 20.879 3.93749 20.691 3.9375 20.5012L3.96375 6.88496C3.96295 6.51961 4.10129 6.16767 4.35066 5.90066C4.60002 5.63365 4.9417 5.4716 5.30625 5.44746C6.81643 5.41744 8.32537 5.5524 9.80625 5.84996C11.854 6.11415 13.8075 6.86981 15.5 8.05246M15.5 24.5562V8.05246M15.5 24.5562C17.1887 23.3675 19.1438 22.61 21.1938 22.355C22.6477 22.0596 24.129 21.92 25.6125 21.9387C25.8023 21.9404 25.9906 21.9044 26.1664 21.8329C26.3423 21.7614 26.5022 21.6558 26.6371 21.5221C26.7719 21.3885 26.8789 21.2294 26.9519 21.0542C27.0249 20.879 27.0625 20.691 27.0625 20.5012L27.035 6.88496C27.0358 6.51981 26.8977 6.16804 26.6485 5.90106C26.3994 5.63408 26.0581 5.47191 25.6938 5.44746C24.1836 5.41744 22.6746 5.5524 21.1938 5.84996C19.146 6.11415 17.1925 6.86981 15.5 8.05246" stroke="#34495E" stroke-width="1.5" stroke-linecap="round" stroke-linejoin="round"/>
</g>
</svg>
