<svg width="24" height="24" viewBox="0 0 24 24" fill="none" xmlns="http://www.w3.org/2000/svg">
<g id="material-symbols:lock-person">
<Path id="Vector" d="M6 22C5.45 22 4.97933 21.8043 4.588 21.413C4.19667 21.0217 4.00067 20.5507 4 20V10C4 9.45 4.196 8.97933 4.588 8.588C4.98 8.19667 5.45067 8.00067 6 8H7V6C7 4.61667 7.48767 3.43767 8.463 2.463C9.43833 1.48833 10.6173 1.00067 12 1C13.3827 0.999334 14.562 1.487 15.538 2.463C16.514 3.439 17.0013 4.618 17 6V8H18C18.55 8 19.021 8.196 19.413 8.588C19.805 8.98 20.0007 9.45067 20 10V11.3C19.7 11.2 19.3877 11.125 19.063 11.075C18.7383 11.025 18.384 11 18 11C16.0667 11 14.4167 11.6833 13.05 13.05C11.6833 14.4167 11 16.0667 11 18C11 18.75 11.1083 19.45 11.325 20.1C11.5417 20.75 11.85 21.3833 12.25 22H6ZM18 23C16.6167 23 15.4377 22.5123 14.463 21.537C13.4883 20.5617 13.0007 19.3827 13 18C12.9993 16.6173 13.487 15.4383 14.463 14.463C15.439 13.4877 16.618 13 18 13C19.382 13 20.5613 13.4877 21.538 14.463C22.5147 15.4383 23.002 16.6173 23 18C22.998 19.3827 22.5103 20.562 21.537 21.538C20.5637 22.514 19.3847 23.0013 18 23ZM9 8H15V6C15 5.16667 14.7083 4.45833 14.125 3.875C13.5417 3.29167 12.8333 3 12 3C11.1667 3 10.4583 3.29167 9.875 3.875C9.29167 4.45833 9 5.16667 9 6V8ZM18 18C18.4167 18 18.771 17.8543 19.063 17.563C19.355 17.2717 19.5007 16.9173 19.5 16.5C19.4993 16.0827 19.3537 15.7287 19.063 15.438C18.7723 15.1473 18.418 15.0013 18 15C17.582 14.9987 17.228 15.1447 16.938 15.438C16.648 15.7313 16.502 16.0853 16.5 16.5C16.498 16.9147 16.644 17.269 16.938 17.563C17.232 17.857 17.586 18.0027 18 18ZM18 21C18.5 21 18.9667 20.8833 19.4 20.65C19.8333 20.4167 20.1917 20.0917 20.475 19.675C20.0917 19.4417 19.6917 19.2707 19.275 19.162C18.8583 19.0533 18.4333 18.9993 18 19C17.5667 19.0007 17.1417 19.0547 16.725 19.162C16.3083 19.2693 15.9083 19.4403 15.525 19.675C15.8083 20.0917 16.1667 20.4167 16.6 20.65C17.0333 20.8833 17.5 21 18 21Z" fill="#34495E"/>
</g>
</svg>
